{
  "accessors": [
    {
      "bufferView": 2,
      "componentType": 5126,
      "count": 2876,
      "max": [
        31.447425842285156,
        25.74641990661621,
        2.1136837005615234
      ],
      "min": [
        -174.34805297851563,
        -36.70920181274414,
        -20.888809204101563
      ],
      "type": "VEC3"
    },
    {
      "bufferView": 2,
      "byteOffset": 34512,
      "componentType": 5126,
      "count": 2876,
      "max": [
        1.0,
        0.9998922348022461,
        1.0
      ],
      "min": [
        -1.0,
        -0.9998922348022461,
        -1.0
      ],
      "type": "VEC3"
    },
    {
      "bufferView": 1,
      "componentType": 5126,
      "count": 2876,
      "max": [
        0.875,
        1.0
      ],
      "min": [
        0.0,
        0.0
      ],
      "type": "VEC2"
    },
    {
      "bufferView": 0,
      "componentType": 5125,
      "count": 4716,
      "type": "SCALAR"
    },
    {
      "bufferView": 2,
      "byteOffset": 69024,
      "componentType": 5126,
      "count": 946,
      "max": [
        19.70365333557129,
        23.883378982543945,
        25.190406799316406
      ],
      "min": [
        -162.6043701171875,
        -37.57267761230469,
        -16.95034408569336
      ],
      "type": "VEC3"
    },
    {
      "bufferView": 2,
      "byteOffset": 80376,
      "componentType": 5126,
      "count": 946,
      "max": [
        1.0,
        0.9999669790267944,
        1.0
      ],
      "min": [
        -1.0,
        -0.9993354082107544,
        -1.0
      ],
      "type": "VEC3"
    },
    {
      "bufferView": 1,
      "byteOffset": 23008,
      "componentType": 5126,
      "count": 946,
      "max": [
        0.875,
        1.0
      ],
      "min": [
        0.125,
        0.0
      ],
      "type": "VEC2"
    },
    {
      "bufferView": 0,
      "byteOffset": 18864,
      "componentType": 5125,
      "count": 1440,
      "type": "SCALAR"
    },
    {
      "bufferView": 2,
      "byteOffset": 91728,
      "componentType": 5126,
      "count": 32,
      "max": [
        -4.417022705078125,
        12.000678062438965,
        23.215473175048828
      ],
      "min": [
        -138.48367309570313,
        -16.120975494384766,
        5.842546463012695
      ],
      "type": "VEC3"
    },
    {
      "bufferView": 2,
      "byteOffset": 92112,
      "componentType": 5126,
      "count": 32,
      "max": [
        0.5578747987747192,
        0.9856396913528442,
        0.8299252986907959
      ],
      "min": [
        -0.5578747391700745,
        -0.877981424331665,
        0.16462111473083496
      ],
      "type": "VEC3"
    },
    {
      "bufferView": 1,
      "byteOffset": 30576,
      "componentType": 5126,
      "count": 32,
      "max": [
        0.8676992654800415,
        0.6666666269302368
      ],
      "min": [
        0.6249998211860657,
        0.0860305055975914
      ],
      "type": "VEC2"
    },
    {
      "bufferView": 0,
      "byteOffset": 24624,
      "componentType": 5125,
      "count": 48,
      "type": "SCALAR"
    },
    {
      "bufferView": 2,
      "byteOffset": 92496,
      "componentType": 5126,
      "count": 140,
      "max": [
        -9.737125396728516,
        26.69612693786621,
        -0.7635698318481445
      ],
      "min": [
        -133.16357421875,
        -34.133567810058594,
        -16.38949203491211
      ],
      "type": "VEC3"
    },
    {
      "bufferView": 2,
      "byteOffset": 94176,
      "componentType": 5126,
      "count": 140,
      "max": [
        0.9192513823509216,
        1.0,
        1.0
      ],
      "min": [
        -0.9192522168159485,
        -0.9802369475364685,
        -0.9985306262969971
      ],
      "type": "VEC3"
    },
    {
      "bufferView": 1,
      "byteOffset": 30832,
      "componentType": 5126,
      "count": 140,
      "max": [
        0.9072902798652649,
        0.9836137294769287
      ],
      "min": [
        0.481350839138031,
        0.09270961582660675
      ],
      "type": "VEC2"
    },
    {
      "bufferView": 0,
      "byteOffset": 24816,
      "componentType": 5125,
      "count": 234,
      "type": "SCALAR"
    },
    {
      "bufferView": 2,
      "byteOffset": 95856,
      "componentType": 5126,
      "count": 354,
      "max": [
        -11.052018165588379,
        26.69612693786621,
        1.6262658834457397
      ],
      "min": [
        -131.8486785888672,
        -36.21220397949219,
        -17.343935012817383
      ],
      "type": "VEC3"
    },
    {
      "bufferView": 2,
      "byteOffset": 100104,
      "componentType": 5126,
      "count": 354,
      "max": [
        1.0,
        1.0,
        1.0
      ],
      "min": [
        -1.0,
        -1.0,
        -1.0
      ],
      "type": "VEC3"
    },
    {
      "bufferView": 1,
      "byteOffset": 31952,
      "componentType": 5126,
      "count": 354,
      "max": [
        1.0,
        1.0
      ],
      "min": [
        -1.564621925354004e-07,
        0.0
      ],
      "type": "VEC2"
    },
    {
      "bufferView": 0,
      "byteOffset": 25752,
      "componentType": 5125,
      "count": 582,
      "type": "SCALAR"
    },
    {
      "bufferView": 2,
      "byteOffset": 104352,
      "componentType": 5126,
      "count": 8,
      "max": [
        -14.232535362243652,
        -35.39042663574219,
        1.2285223007202148
      ],
      "min": [
        -128.66815185546875,
        -35.586151123046875,
        -1.0464608669281006
      ],
      "type": "VEC3"
    },
    {
      "bufferView": 2,
      "byteOffset": 104448,
      "componentType": 5126,
      "count": 8,
      "max": [
        0.005307829473167658,
        -0.9993868470191956,
        0.03460974618792534
      ],
      "min": [
        -0.005307828076183796,
        -0.9993869066238403,
        0.03460973873734474
      ],
      "type": "VEC3"
    },
    {
      "bufferView": 1,
      "byteOffset": 34784,
      "componentType": 5126,
      "count": 8,
      "max": [
        0.0,
        0.0
      ],
      "min": [
        0.0,
        0.0
      ],
      "type": "VEC2"
    },
    {
      "bufferView": 0,
      "byteOffset": 28080,
      "componentType": 5125,
      "count": 12,
      "type": "SCALAR"
    },
    {
      "bufferView": 2,
      "byteOffset": 104544,
      "componentType": 5126,
      "count": 8,
      "max": [
        -14.232532501220703,
        22.444610595703125,
        1.2123596668243408
      ],
      "min": [
        -128.66815185546875,
        22.248882293701172,
        -1.0626256465911865
      ],
      "type": "VEC3"
    },
    {
      "bufferView": 2,
      "byteOffset": 104640,
      "componentType": 5126,
      "count": 8,
      "max": [
        0.005307931452989578,
        0.9993869066238403,
        -0.03460974618792534
      ],
      "min": [
        -0.005307933781296015,
        0.9993869066238403,
        -0.03460974991321564
      ],
      "type": "VEC3"
    },
    {
      "bufferView": 1,
      "byteOffset": 34848,
      "componentType": 5126,
      "count": 8,
      "max": [
        0.0,
        0.0
      ],
      "min": [
        0.0,
        0.0
      ],
      "type": "VEC2"
    },
    {
      "bufferView": 0,
      "byteOffset": 28128,
      "componentType": 5125,
      "count": 12,
      "type": "SCALAR"
    },
    {
      "bufferView": 2,
      "byteOffset": 104736,
      "componentType": 5126,
      "count": 448,
      "max": [
        19.483243942260742,
        17.982425689697266,
        4.600214958190918
      ],
      "min": [
        -162.3839111328125,
        -30.165294647216797,
        -9.198102951049805
      ],
      "type": "VEC3"
    },
    {
      "bufferView": 2,
      "byteOffset": 110112,
      "componentType": 5126,
      "count": 448,
      "max": [
        1.0,
        0.9752371311187744,
        0.998665988445282
      ],
      "min": [
        -1.0,
        -0.9720809459686279,
        -0.8911532163619995
      ],
      "type": "VEC3"
    },
    {
      "bufferView": 1,
      "byteOffset": 34912,
      "componentType": 5126,
      "count": 448,
      "max": [
        0.0,
        0.0
      ],
      "min": [
        0.0,
        0.0
      ],
      "type": "VEC2"
    },
    {
      "bufferView": 0,
      "byteOffset": 28176,
      "componentType": 5125,
      "count": 672,
      "type": "SCALAR"
    },
    {
      "bufferView": 2,
      "byteOffset": 115488,
      "componentType": 5126,
      "count": 1588,
      "max": [
        28.575279235839844,
        15.14971923828125,
        -1.3071651458740234
      ],
      "min": [
        -171.47589111328125,
        -27.498973846435547,
        -23.201736450195313
      ],
      "type": "VEC3"
    },
    {
      "bufferView": 2,
      "byteOffset": 134544,
      "componentType": 5126,
      "count": 1588,
      "max": [
        1.0,
        0.9968389868736267,
        0.9538683891296387
      ],
      "min": [
        -1.0,
        -0.9968391060829163,
        -0.9538681507110596
      ],
      "type": "VEC3"
    },
    {
      "bufferView": 1,
      "byteOffset": 38496,
      "componentType": 5126,
      "count": 1588,
      "max": [
        1.0,
        1.0
      ],
      "min": [
        -1.564621925354004e-07,
        0.01000000536441803
      ],
      "type": "VEC2"
    },
    {
      "bufferView": 0,
      "byteOffset": 30864,
      "componentType": 5125,
      "count": 2400,
      "type": "SCALAR"
    },
    {
      "bufferView": 2,
      "byteOffset": 153600,
      "componentType": 5126,
      "count": 32,
      "max": [
        17.24768829345703,
        -12.354535102844238,
        10.813705444335938
      ],
      "min": [
        -160.1483917236328,
        -13.439475059509277,
        5.98198127746582
      ],
      "type": "VEC3"
    },
    {
      "bufferView": 2,
      "byteOffset": 153984,
      "componentType": 5126,
      "count": 32,
      "max": [
        0.06042465940117836,
        0.9973318576812744,
        0.04096783325076103
      ],
      "min": [
        -0.0604245662689209,
        0.9973317384719849,
        0.04096517711877823
      ],
      "type": "VEC3"
    },
    {
      "bufferView": 1,
      "byteOffset": 51200,
      "componentType": 5126,
      "count": 32,
      "max": [
        0.625,
        1.0
      ],
      "min": [
        0.625,
        0.8011777400970459
      ],
      "type": "VEC2"
    },
    {
      "bufferView": 0,
      "byteOffset": 40464,
      "componentType": 5125,
      "count": 48,
      "type": "SCALAR"
    }
  ],
  "asset": {
    "extras": {
      "author": "necifes (https://sketchfab.com/necifes)",
      "license": "CC-BY-4.0 (http://creativecommons.org/licenses/by/4.0/)",
      "source": "https://sketchfab.com/3d-models/low-poly-car-c1bc5553672547e1900e9dd501102b90",
      "title": "Low poly car"
    },
    "generator": "Sketchfab-12.65.0",
    "version": "2.0"
  },
  "bufferViews": [
    {
      "buffer": 0,
      "byteLength": 40656,
      "name": "floatBufferViews",
      "target": 34963
    },
    {
      "buffer": 0,
      "byteLength": 51456,
      "byteOffset": 40656,
      "byteStride": 8,
      "name": "floatBufferViews",
      "target": 34962
    },
    {
      "buffer": 0,
      "byteLength": 154368,
      "byteOffset": 92112,
      "byteStride": 12,
      "name": "floatBufferViews",
      "target": 34962
    }
  ],
  "buffers": [
    {
      "byteLength": 246480,
      "uri": "scene.bin"
    }
  ],
  "extensionsUsed": [
    "KHR_materials_clearcoat"
  ],
  "materials": [
    {
      "doubleSided": true,
      "name": "Material.001",
      "pbrMetallicRoughness": {
        "baseColorFactor": [
          0.517334,
          0.517334,
          0.517334,
          1.0
        ],
        "roughnessFactor": 0.12331351196882087
      }
    },
    {
      "doubleSided": true,
      "extensions": {
        "KHR_materials_clearcoat": {
          "clearcoatFactor": 1.0,
          "clearcoatRoughnessFactor": 0.04
        }
      },
      "name": "Carooserie",
      "pbrMetallicRoughness": {
        "baseColorFactor": [
          0.16794900000000001,
          0.00490382,
          0.1290439999999999,
          1.0
        ],
        "roughnessFactor": 0.5914868455453611
      }
    },
    {
      "doubleSided": true,
      "name": "Glass",
      "pbrMetallicRoughness": {
        "baseColorFactor": [
          0.0300274,
          0.0300274,
          0.0300274,
          1.0
        ],
        "metallicFactor": 0.0,
        "roughnessFactor": 0.008754416246363887
      }
    },
    {
      "doubleSided": true,
      "name": "Material",
      "pbrMetallicRoughness": {
        "baseColorFactor": [
          0.00560468,
          0.00560468,
          0.00560468,
          1.0
        ],
        "metallicFactor": 0.0,
        "roughnessFactor": 0.9987467554527867
      }
    },
    {
      "doubleSided": true,
      "name": "Material.004",
      "pbrMetallicRoughness": {
        "baseColorFactor": [
          0.252944,
          0.252944,
          0.252944,
          1.0
        ],
        "metallicFactor": 0.0,
        "roughnessFactor": 0.9429706042650147
      }
    },
    {
      "doubleSided": true,
      "emissiveFactor": [
        1.0,
        1.0,
        1.0
      ],
      "name": "Material.005",
      "pbrMetallicRoughness": {
        "baseColorFactor": [
          0.8,
          0.8,
          0.8,
          1.0
        ],
        "metallicFactor": 0.0,
        "roughnessFactor": 0.8040408205773457
      }
    },
    {
      "doubleSided": true,
      "emissiveFactor": [
        1.0,
        0.0,
        0.0
      ],
      "name": "Material.006",
      "pbrMetallicRoughness": {
        "baseColorFactor": [
          1.0,
          0.0,
          0.0,
          1.0
        ],
        "metallicFactor": 0.0,
        "roughnessFactor": 0.8040408205773457
      }
    },
    {
      "doubleSided": true,
      "extensions": {
        "KHR_materials_clearcoat": {
          "clearcoatFactor": 1.0,
          "clearcoatRoughnessFactor": 0.04
        }
      },
      "name": "Carooserie.001",
      "pbrMetallicRoughness": {
        "baseColorFactor": [
          0.0549688,
          0.0549688,
          0.0549688,
          1.0
        ],
        "roughnessFactor": 0.98653544882269
      }
    },
    {
      "doubleSided": true,
      "name": "Material.002",
      "pbrMetallicRoughness": {
        "baseColorFactor": [
          0.0,
          0.0,
          0.0,
          1.0
        ],
        "metallicFactor": 0.0
      }
    },
    {
      "doubleSided": true,
      "name": "Glass.001",
      "pbrMetallicRoughness": {
        "roughnessFactor": 0.0
      }
    }
  ],
  "meshes": [
    {
      "name": "LowPoly_car_Material.001_0",
      "primitives": [
        {
          "attributes": {
            "NORMAL": 1,
            "POSITION": 0,
            "TEXCOORD_0": 2
          },
          "indices": 3,
          "material": 0,
          "mode": 4
        }
      ]
    },
    {
      "name": "LowPoly_car_Carooserie_0",
      "primitives": [
        {
          "attributes": {
            "NORMAL": 5,
            "POSITION": 4,
            "TEXCOORD_0": 6
          },
          "indices": 7,
          "material": 1,
          "mode": 4
        }
      ]
    },
    {
      "name": "LowPoly_car_Glass_0",
      "primitives": [
        {
          "attributes": {
            "NORMAL": 9,
            "POSITION": 8,
            "TEXCOORD_0": 10
          },
          "indices": 11,
          "material": 2,
          "mode": 4
        }
      ]
    },
    {
      "name": "LowPoly_car_Material_0",
      "primitives": [
        {
          "attributes": {
            "NORMAL": 13,
            "POSITION": 12,
            "TEXCOORD_0": 14
          },
          "indices": 15,
          "material": 3,
          "mode": 4
        }
      ]
    },
    {
      "name": "LowPoly_car_Material.004_0",
      "primitives": [
        {
          "attributes": {
            "NORMAL": 17,
            "POSITION": 16,
            "TEXCOORD_0": 18
          },
          "indices": 19,
          "material": 4,
          "mode": 4
        }
      ]
    },
    {
      "name": "LowPoly_car_Material.005_0",
      "primitives": [
        {
          "attributes": {
            "NORMAL": 21,
            "POSITION": 20,
            "TEXCOORD_0": 22
          },
          "indices": 23,
          "material": 5,
          "mode": 4
        }
      ]
    },
    {
      "name": "LowPoly_car_Material.006_0",
      "primitives": [
        {
          "attributes": {
            "NORMAL": 25,
            "POSITION": 24,
            "TEXCOORD_0": 26
          },
          "indices": 27,
          "material": 6,
          "mode": 4
        }
      ]
    },
    {
      "name": "LowPoly_car_Carooserie.001_0",
      "primitives": [
        {
          "attributes": {
            "NORMAL": 29,
            "POSITION": 28,
            "TEXCOORD_0": 30
          },
          "indices": 31,
          "material": 7,
          "mode": 4
        }
      ]
    },
    {
      "name": "LowPoly_car_Material.002_0",
      "primitives": [
        {
          "attributes": {
            "NORMAL": 33,
            "POSITION": 32,
            "TEXCOORD_0": 34
          },
          "indices": 35,
          "material": 8,
          "mode": 4
        }
      ]
    },
    {
      "name": "LowPoly_car_Glass.001_0",
      "primitives": [
        {
          "attributes": {
            "NORMAL": 37,
            "POSITION": 36,
            "TEXCOORD_0": 38
          },
          "indices": 39,
          "material": 9,
          "mode": 4
        }
      ]
    }
  ],
  "nodes": [
    {
      "children": [
        1
      ],
      "matrix": [
        0.9999867677688599,
        -0.005149007309228182,
        -1.1433092937336701e-18,
        0.0,
        0.0,
        2.220446049250313e-16,
        -1.0,
        0.0,
        0.005149007309228182,
        0.9999867677688599,
        2.2204166677949552e-16,
        0.0,
        -0.8578375577926636,
        0.002178067108616233,
        -1.0105061846842972e-05,
        1.0
      ],
      "name": "Sketchfab_model"
    },
    {
      "children": [
        2
      ],
      "matrix": [
        1.0,
        0.0,
        0.0,
        0.0,
        0.0,
        0.0,
        1.0,
        0.0,
        0.0,
        -1.0,
        0.0,
        0.0,
        0.0,
        0.0,
        0.0,
        1.0
      ],
      "name": "9e8ca9615c9b43d8aae7e7f6bd8c29e2.fbx"
    },
    {
      "children": [
        3
      ],
      "name": "RootNode"
    },
    {
      "children": [
        4,
        5,
        6,
        7,
        8,
        9,
        10,
        11,
        12,
        13
      ],
      "matrix": [
        2.688626289367676,
        0.0,
        0.0,
        0.0,
        0.0,
        -2.540338785433406e-06,
        -15.592488288879188,
        0.0,
        0.0,
        7.846318721771136,
        -1.2783275768758166e-06,
        0.0,
        192.10330200195313,
        158.7994842529297,
        -25.999759674072266,
        1.0
      ],
      "name": "LowPoly_car"
    },
    {
      "mesh": 0,
      "name": "LowPoly_car_Material.001_0"
    },
    {
      "mesh": 1,
      "name": "LowPoly_car_Carooserie_0"
    },
    {
      "mesh": 2,
      "name": "LowPoly_car_Glass_0"
    },
    {
      "mesh": 3,
      "name": "LowPoly_car_Material_0"
    },
    {
      "mesh": 4,
      "name": "LowPoly_car_Material.004_0"
    },
    {
      "mesh": 5,
      "name": "LowPoly_car_Material.005_0"
    },
    {
      "mesh": 6,
      "name": "LowPoly_car_Material.006_0"
    },
    {
      "mesh": 7,
      "name": "LowPoly_car_Carooserie.001_0"
    },
    {
      "mesh": 8,
      "name": "LowPoly_car_Material.002_0"
    },
    {
      "mesh": 9,
      "name": "LowPoly_car_Glass.001_0"
    }
  ],
  "scene": 0,
  "scenes": [
    {
      "name": "Sketchfab_Scene",
      "nodes": [
        0
      ]
    }
  ]
}
